<?xml version="1.0" encoding="UTF-8"?><svg id="Logo" xmlns="http://www.w3.org/2000/svg" width="400" height="400" viewBox="0 0 400 400"><defs><style>.cls-1{fill:#f9a825;}</style></defs><path class="cls-1" d="M400,200c0,110.46-89.54,200-200,200-45.04,0-86.59-14.88-120.02-40H242.35c41.1,0,74.51-32.92,75.28-73.83,.43-22.87-9.75-43.5-25.88-57.58,15.53-13.49,25.47-33.26,25.88-55.36,.81-42.2-34.54-76.76-76.76-76.76h-82.52c-10.8,0-19.5,9.13-18.78,20.09,.66,10,9.41,17.56,19.44,17.56h83.34c21.24,0,38.44,17.67,37.63,39.09-.77,20.37-18.16,36.2-38.55,36.2h-79.08c-5.19,0-9.9,2.11-13.31,5.51-3.4,3.41-5.51,8.12-5.51,13.32,0,10.39,8.43,18.82,18.82,18.82h80c21.24,0,38.44,17.67,37.63,39.1-.77,20.36-18.16,36.19-38.55,36.19H41.78c-4.78-6.17-9.21-12.63-13.26-19.35H240c5.24,0,10-2.13,13.43-5.57,3.44-3.43,5.57-8.19,5.57-13.43,0-10.49-8.51-19-19-19H10.8C3.8,244.62,0,222.75,0,200,0,89.54,89.54,0,200,0c45.04,0,86.59,14.88,120.02,40H159.14c-42.22,0-77.58,34.55-76.77,76.76,.78,40.91,34.19,73.83,75.28,73.83h80c10.39,0,18.82-8.43,18.82-18.83,0-5.2-2.11-9.9-5.51-13.31-3.41-3.4-8.12-5.51-13.31-5.51h-79.08c-20.38,0-37.77-15.82-38.54-36.19-.81-21.42,16.38-39.1,37.62-39.1h200.57c26.2,33.82,41.78,76.26,41.78,122.35Z"/></svg>