<?xml version="1.0" standalone="no"?>
<!DOCTYPE svg PUBLIC "-//W3C//DTD SVG 20010904//EN"
 "http://www.w3.org/TR/2001/REC-SVG-20010904/DTD/svg10.dtd">
<svg version="1.0" xmlns="http://www.w3.org/2000/svg"
 width="834.000000pt" height="834.000000pt" viewBox="0 0 834.000000 834.000000"
 preserveAspectRatio="xMidYMid meet">
<metadata>
Created by potrace 1.14, written by Peter Selinger 2001-2017
</metadata>
<g transform="translate(0.000000,834.000000) scale(0.100000,-0.100000)"
fill="#000000" stroke="none">
<path d="M3909 8336 c-2 -2 -44 -7 -94 -10 -49 -4 -103 -9 -120 -11 -16 -2
-52 -7 -80 -10 -102 -13 -122 -16 -225 -36 -570 -111 -1059 -312 -1545 -635
-334 -222 -671 -529 -912 -832 -43 -53 -81 -101 -85 -107 -4 -5 -18 -23 -31
-40 -162 -208 -363 -560 -492 -864 -84 -198 -195 -542 -221 -688 -3 -15 -7
-29 -9 -33 -6 -9 -54 -287 -61 -350 -3 -30 -7 -66 -10 -80 -13 -84 -19 -229
-19 -475 0 -247 4 -341 21 -467 2 -18 6 -53 9 -78 6 -51 8 -63 40 -245 8 -50
58 -261 66 -282 5 -13 11 -36 14 -51 2 -15 19 -72 37 -126 l33 -100 2430 -1
c2272 -1 2433 -2 2475 -18 125 -48 218 -152 256 -286 14 -51 6 -165 -16 -223
-19 -51 -84 -142 -122 -173 -33 -26 -93 -56 -144 -71 -50 -14 -265 -16 -2280
-16 -1223 0 -2224 -3 -2224 -7 0 -15 132 -214 216 -327 l53 -71 2143 2 c2135
1 2143 2 2218 22 273 76 478 264 565 518 119 349 -34 743 -361 928 -67 38
-193 82 -264 93 -25 4 -454 8 -955 9 l-910 2 -58 22 c-180 70 -287 264 -246
446 32 143 152 267 291 302 13 3 428 6 923 8 495 1 916 5 935 9 19 3 49 9 65
12 64 13 193 69 260 113 258 169 389 449 353 755 -34 287 -251 550 -527 641
-130 42 -138 43 -1106 43 -511 1 -945 3 -964 7 -18 3 -61 19 -95 35 -101 47
-171 125 -206 230 -62 184 27 383 210 473 l65 32 975 2 c1031 1 1022 2 1222
-46 343 -81 689 -310 900 -594 169 -229 255 -438 304 -742 9 -54 9 -307 0
-370 -44 -315 -162 -586 -362 -826 -34 -41 -86 -97 -115 -123 l-51 -47 77 -77
c171 -171 306 -386 380 -607 26 -79 31 -96 41 -145 3 -14 9 -41 14 -60 22 -85
30 -300 17 -445 -12 -142 -62 -330 -121 -458 -14 -32 -26 -60 -26 -63 0 -17
-118 -202 -178 -279 -167 -215 -369 -369 -647 -490 -89 -39 -248 -81 -385
-101 -76 -11 -243 -13 -1885 -14 -1695 0 -1700 -1 -1675 -20 62 -49 316 -214
425 -276 220 -124 474 -238 720 -321 181 -61 452 -131 575 -149 19 -3 46 -7
60 -10 44 -8 129 -21 195 -30 242 -31 705 -36 910 -9 17 2 57 7 90 10 149 15
391 62 575 110 52 14 102 27 110 30 8 2 64 20 123 39 423 140 856 367 1202
630 77 58 243 195 283 233 128 122 230 224 292 293 41 46 82 91 90 100 94 100
287 369 404 564 250 414 451 946 522 1385 3 18 8 43 10 55 3 11 7 37 10 56 2
19 9 67 14 105 37 257 44 702 16 945 -3 19 -7 59 -10 88 -4 30 -11 84 -17 120
-5 37 -12 83 -15 102 -3 19 -21 107 -41 195 -96 437 -261 849 -496 1240 -87
146 -261 394 -275 396 -50 5 -4244 0 -4287 -5 -251 -30 -497 -215 -609 -459
-48 -105 -60 -171 -60 -322 0 -159 11 -208 75 -340 97 -198 286 -351 515 -416
79 -23 79 -23 997 -26 1020 -3 976 0 1078 -71 202 -141 227 -427 51 -598 -26
-25 -64 -55 -86 -66 -96 -49 -70 -48 -1061 -47 -1018 1 -1017 1 -1227 63 -611
178 -1051 705 -1123 1342 -7 58 -7 241 -1 304 26 257 115 501 261 719 128 190
354 399 535 494 14 7 50 26 80 42 30 16 57 30 60 30 3 1 19 7 35 14 96 41 278
94 360 105 22 3 63 9 90 13 28 3 830 7 1782 7 953 1 1733 4 1733 7 0 6 -58 48
-195 140 -356 238 -798 438 -1217 548 -115 31 -265 65 -328 75 -19 3 -44 8
-56 10 -12 2 -45 7 -74 11 -29 4 -61 8 -71 10 -10 2 -49 7 -86 11 -37 3 -79 8
-93 11 -31 5 -626 14 -631 9z"/>
</g>
</svg>
